<?xml version="1.0" encoding="UTF-8"?><svg xmlns="http://www.w3.org/2000/svg" xmlns:xlink="http://www.w3.org/1999/xlink" width="30pt" zoomAndPan="magnify" viewBox="0 0 30 30.000001" height="30.000001pt" preserveAspectRatio="xMidYMid meet" version="1.2"><defs><clipPath xml:id="clip1" id="clip1"><path d="M 0.484375 0 L 29.515625 0 L 29.515625 29.03125 L 0.484375 29.03125 Z M 0.484375 0 "/></clipPath></defs><g xml:id="surface1" id="surface1"><g clip-rule="nonzero" clip-path="url(#clip1)"><path style=" stroke:none;fill-rule:nonzero;fill:rgb(10.978699%,59.999084%,90.19928%);fill-opacity:1;" d="M 29.515625 14.515625 C 29.515625 12.40625 28.316406 10.5625 26.566406 9.632812 C 27.042969 7.808594 26.578125 5.78125 25.15625 4.359375 C 24.09375 3.296875 22.695312 2.769531 21.292969 2.769531 C 20.820312 2.769531 20.34375 2.828125 19.882812 2.949219 C 18.953125 1.199219 17.113281 0 15 0 C 12.886719 0 11.046875 1.199219 10.117188 2.949219 C 9.652344 2.828125 9.179688 2.769531 8.707031 2.769531 C 7.304688 2.769531 5.90625 3.296875 4.84375 4.359375 C 3.421875 5.78125 2.957031 7.808594 3.433594 9.632812 C 1.683594 10.5625 0.484375 12.40625 0.484375 14.515625 C 0.484375 16.628906 1.683594 18.46875 3.433594 19.402344 C 2.957031 21.222656 3.421875 23.25 4.84375 24.671875 C 5.90625 25.734375 7.304688 26.261719 8.707031 26.261719 C 9.179688 26.261719 9.65625 26.203125 10.117188 26.082031 C 11.046875 27.832031 12.886719 29.03125 15 29.03125 C 17.113281 29.03125 18.953125 27.832031 19.882812 26.082031 C 20.347656 26.203125 20.820312 26.261719 21.292969 26.261719 C 22.695312 26.261719 24.09375 25.734375 25.15625 24.671875 C 26.578125 23.25 27.042969 21.222656 26.566406 19.402344 C 28.316406 18.46875 29.515625 16.628906 29.515625 14.515625 Z M 29.515625 14.515625 "/></g><path style=" stroke:none;fill-rule:nonzero;fill:rgb(100%,100%,100%);fill-opacity:1;" d="M 13.546875 20.925781 L 8.167969 15.542969 L 10.21875 13.488281 L 13.546875 16.816406 L 20.507812 9.859375 L 22.558594 11.914062 Z M 13.546875 20.925781 "/></g></svg>